<svg xmlns="http://www.w3.org/2000/svg" viewBox="0 0 1290 2796">
  <defs>
    <linearGradient id="bg" x1="0%" y1="0%" x2="100%" y2="100%">
      <stop offset="0%" style="stop-color:#0f172a"/>
      <stop offset="100%" style="stop-color:#0f172a"/>
    </linearGradient>
    <radialGradient id="glow1" cx="0%" cy="0%" r="50%">
      <stop offset="0%" style="stop-color:rgba(99, 102, 241, 0.15)"/>
      <stop offset="100%" style="stop-color:transparent"/>
    </radialGradient>
    <radialGradient id="glow2" cx="100%" cy="100%" r="50%">
      <stop offset="0%" style="stop-color:rgba(16, 185, 129, 0.1)"/>
      <stop offset="100%" style="stop-color:transparent"/>
    </radialGradient>
  </defs>
  <rect width="1290" height="2796" fill="#0f172a"/>
  <rect width="1290" height="2796" fill="url(#glow1)"/>
  <rect width="1290" height="2796" fill="url(#glow2)"/>
  <!-- Book icon centered -->
  <g transform="translate(645, 1398) scale(2.5)">
    <path d="M-120 -80 Q-120 -100 -100 -100 L-20 -100 Q0 -100 0 -80 L0 100 Q0 120 -20 120 L-100 120 Q-120 120 -120 100 Z" fill="#fff" opacity="0.95"/>
    <path d="M120 -80 Q120 -100 100 -100 L20 -100 Q0 -100 0 -80 L0 100 Q0 120 20 120 L100 120 Q120 120 120 100 Z" fill="#fff" opacity="0.9"/>
    <rect x="-8" y="-100" width="16" height="220" rx="4" fill="#e0e7ff"/>
    <rect x="-100" y="-60" width="60" height="8" rx="4" fill="#c7d2fe"/>
    <rect x="-100" y="-40" width="70" height="8" rx="4" fill="#c7d2fe"/>
    <rect x="-100" y="-20" width="50" height="8" rx="4" fill="#c7d2fe"/>
    <rect x="-100" y="0" width="65" height="8" rx="4" fill="#c7d2fe"/>
    <rect x="40" y="-60" width="60" height="8" rx="4" fill="#c7d2fe"/>
    <rect x="30" y="-40" width="70" height="8" rx="4" fill="#c7d2fe"/>
    <rect x="50" y="-20" width="50" height="8" rx="4" fill="#c7d2fe"/>
    <rect x="35" y="0" width="65" height="8" rx="4" fill="#c7d2fe"/>
    <circle cx="60" cy="60" r="35" fill="#10b981"/>
    <text x="60" y="72" font-family="Arial, sans-serif" font-size="40" font-weight="bold" fill="#fff" text-anchor="middle">✓</text>
  </g>
  <text x="645" y="1650" font-family="system-ui, -apple-system, sans-serif" font-size="72" font-weight="600" fill="#f8fafc" text-anchor="middle">図書館カレンダー</text>
</svg>
